<?xml version="1.0" standalone="no"?>
<!DOCTYPE svg PUBLIC "-//W3C//DTD SVG 20010904//EN"
 "http://www.w3.org/TR/2001/REC-SVG-20010904/DTD/svg10.dtd">
<svg version="1.0" xmlns="http://www.w3.org/2000/svg"
 width="457.000000pt" height="457.000000pt" viewBox="0 0 457.000000 457.000000"
 preserveAspectRatio="xMidYMid meet">
<metadata>
Created by potrace 1.14, written by Peter Selinger 2001-2017
</metadata>
<g transform="translate(0.000000,457.000000) scale(0.100000,-0.100000)"
fill="#000000" stroke="none">
<path d="M1960 4379 c-219 -37 -394 -125 -544 -274 -188 -186 -322 -458 -371
-750 -13 -76 -12 -270 0 -360 20 -136 50 -257 90 -350 7 -16 21 -50 31 -74 10
-25 38 -79 61 -120 l43 -74 -25 -31 c-80 -98 -117 -150 -163 -226 -183 -301
-260 -735 -197 -1115 29 -176 123 -404 226 -545 50 -70 62 -79 74 -60 3 6 14
10 23 10 9 0 -15 -21 -53 -47 -133 -89 -216 -200 -234 -313 l-8 -50 608 0
c569 0 610 1 651 19 83 35 180 55 273 54 74 0 110 -7 207 -37 l118 -36 865 0
865 0 0 95 0 94 -37 6 c-169 29 -436 111 -640 197 -97 42 -100 44 -86 63 13
17 41 75 84 170 19 44 80 299 94 395 4 25 11 68 16 95 5 28 12 77 15 110 3 33
9 91 13 129 9 81 7 324 -3 416 -19 174 -52 301 -112 429 -106 226 -251 360
-484 447 -52 19 -102 39 -110 43 -16 9 -18 56 -6 188 21 249 29 635 14 733
-26 178 -100 355 -190 455 -14 17 -35 39 -45 50 -66 74 -173 135 -333 189 -91
31 -137 43 -225 62 -158 33 -357 39 -505 13z m385 -53 c142 -18 385 -90 504
-150 118 -60 253 -232 306 -391 45 -134 54 -220 50 -470 -3 -126 -7 -255 -9
-285 -5 -49 -13 -157 -21 -260 -1 -19 -3 -40 -4 -46 -1 -7 -46 2 -120 22 -65
18 -132 35 -147 38 -292 53 -356 60 -549 58 -198 -1 -333 -29 -558 -114 -134
-51 -332 -174 -442 -273 l-39 -35 -24 37 c-72 116 -157 343 -177 473 -28 187
-27 336 5 490 59 291 239 588 445 735 119 86 289 153 424 169 30 4 56 8 58 9
5 6 239 0 298 -7z"/>
<path d="M4422 1210 c0 -19 2 -27 5 -17 2 9 2 25 0 35 -3 9 -5 1 -5 -18z"/>
</g>
</svg>
